HIERARCHY
ROOT Hips
{
     OFFSET 25.34810 93.52800 -33.69530
     CHANNELS 6 Xposition Yposition Zposition Zrotation Xrotation Yrotation
     JOINT Spine
     {
          OFFSET -0.00000 11.89050 0.00000
          CHANNELS 3 Zrotation Xrotation Yrotation
          JOINT Spine1
          {
               OFFSET -0.00000 25.65740 0.12766
               CHANNELS 3 Zrotation Xrotation Yrotation
               JOINT HEad
               {
                    OFFSET -0.00000 8.73416 0.01134
                    CHANNELS 3 Zrotation Xrotation Yrotation
                    End Site
                    {
                         OFFSET -0.29000 12.77420 2.51395
                    }
               }
               JOINT LeftShoulder1
               {
                    OFFSET 8.99000 -0.36225 -0.22000
                    CHANNELS 3 Zrotation Xrotation Yrotation
                    JOINT LeftArm
                    {
                         OFFSET 10.28270 -0.00338 0.32212
                         CHANNELS 3 Zrotation Xrotation Yrotation
                         JOINT LeftForeArm
                         {
                              OFFSET 32.76690 0.09914 -1.42434
                              CHANNELS 3 Zrotation Xrotation Yrotation
                              JOINT LeftHand
                              {
                                   OFFSET 27.56430 0.08536 1.02216
                                   CHANNELS 3 Zrotation Xrotation Yrotation
                                   End Site
                                   {
                                        OFFSET 16.74430 -0.60000 1.50291
                                   }
                              }
                         }
                    }
               }
               JOINT RightShoulder
               {
                    OFFSET -8.99000 -0.36225 -0.22000
                    CHANNELS 3 Zrotation Xrotation Yrotation
                    JOINT RightArm
                    {
                         OFFSET -10.28270 -0.00338 0.32212
                         CHANNELS 3 Zrotation Xrotation Yrotation
                         JOINT RightForeArm
                         {
                              OFFSET -32.89710 0.09914 -1.42434
                              CHANNELS 3 Zrotation Xrotation Yrotation
                              JOINT RightHand
                              {
                                   OFFSET -27.49210 0.08536 1.02216
                                   CHANNELS 3 Zrotation Xrotation Yrotation
                                   End Site
                                   {
                                        OFFSET -16.63120 -0.60000 1.50291
                                   }
                              }
                         }
                    }
               }
          }
     }
     JOINT LeftUpLeg
     {
          OFFSET 8.94580 -8.66707 0.10165
          CHANNELS 3 Zrotation Xrotation Yrotation
          JOINT LeftLeg
          {
               OFFSET -0.00000 -44.42270 1.37270
               CHANNELS 3 Zrotation Xrotation Yrotation
               JOINT LeftFoot
               {
                    OFFSET -0.25355 -42.09240 -1.46059
                    CHANNELS 3 Zrotation Xrotation Yrotation
                    JOINT LeftToes
                    {
                         OFFSET -0.04000 -4.41509 8.49910
                         CHANNELS 3 Zrotation Xrotation Yrotation
                         End Site
                         {
                              OFFSET 0.08000 -0.04745 9.77979
                         }
                    }
               }
          }
     }
     JOINT RightUpLeg
     {
          OFFSET -8.94580 -8.66707 0.10165
          CHANNELS 3 Zrotation Xrotation Yrotation
          JOINT RightLeg
          {
               OFFSET 0.00000 -44.42270 1.37270
               CHANNELS 3 Zrotation Xrotation Yrotation
               JOINT RightFoot
               {
                    OFFSET 0.25355 -42.09240 -1.46059
                    CHANNELS 3 Zrotation Xrotation Yrotation
                    JOINT RightToes
                    {
                         OFFSET 0.04000 -4.41509 8.49910
                         CHANNELS 3 Zrotation Xrotation Yrotation
                         End Site
                         {
                              OFFSET -0.08000 -0.13745 9.77979
                         }
                    }
               }
          }
     }
}
MOTION
Frames: 10
Frame Time: 0.01667
7.24875 95.23320 11.28770 -41.22880 -56.61710 -144.81000 -11.80540 7.22853 6.32246 -26.91680 17.43080 14.81610 -24.97210 -19.07000 41.06630 -0.00000 0.00000 -0.00000 -94.08750 1.77206 4.66959 157.57600 -82.30280 160.52699 -22.83050 7.68420 15.00920 -11.13720 -0.30964 6.53879 87.70790 10.43750 79.83190 3.40157 26.75160 88.16900 29.48280 12.56900 5.73033 50.06900 -35.66880 -31.92790 -17.40370 41.14800 79.46940 -56.18270 -12.82480 -2.73044 -20.79700 56.21590 13.17750 -68.98570 -22.00300 -10.73470 41.84540 20.68220 -67.64610 9.99033 -33.96220 2.08174 -5.62858 38.22990 6.27098 
5.65295 95.26020 13.88470 -45.27190 -56.03370 -148.24100 -10.13130 6.81543 8.41455 -25.73930 19.14500 16.38970 -27.85970 -18.83450 37.35230 -0.00000 0.00000 -0.00000 -95.02370 2.25249 2.29775 171.57899 -81.81940 171.50700 -23.13900 8.24264 12.21790 -10.64590 -0.34576 7.98503 88.32400 12.20910 79.68910 4.59079 26.78710 87.42850 30.16470 12.61830 5.68025 48.40510 -45.71980 -30.17570 -18.29880 46.73860 83.11650 -63.94500 -13.16430 -3.41560 -13.28690 50.04200 4.64169 -71.00450 -22.82870 -6.92826 41.43440 22.93520 -69.12830 15.84960 -35.19220 3.70891 -5.07549 41.91480 4.21408 
6.07218 95.24880 14.96480 -48.45960 -53.89670 -151.06799 -9.82195 8.27204 10.20870 -25.03920 22.38880 18.78560 -29.66720 -19.09080 33.93770 -0.00000 0.00000 -0.00000 -96.60670 3.14089 0.51364 -173.33400 -81.78790 -177.05400 -23.22200 8.85518 9.27907 -9.96847 -0.36162 9.66841 88.28680 13.35810 79.18470 4.87917 26.73690 87.08650 30.90100 12.60770 5.39851 50.02280 -52.67450 -24.43910 -22.20670 46.27700 85.11690 -58.76260 -11.23360 -1.98178 -5.40409 43.55550 -6.34174 -69.96410 -20.91490 -6.17040 40.16000 21.99430 -65.07940 13.20750 -35.80270 3.10058 -5.14552 41.47620 4.45427 
8.51944 95.74210 15.46910 -51.04430 -51.09540 -153.16200 -10.31490 11.69640 10.86880 -24.92360 26.88770 21.49660 -30.18720 -19.93770 31.37260 -0.00000 0.00000 -0.00000 -98.46230 4.05608 -0.31260 -155.04500 -82.34050 -162.94299 -23.03460 9.44959 6.46079 -9.04931 -0.34107 11.66750 87.60280 14.25850 78.17600 4.39718 26.53560 87.16570 31.08950 12.52110 5.02933 51.52380 -56.52310 -19.05530 -26.92380 40.72090 87.71590 -45.32120 -5.90870 0.75304 1.30412 35.05240 -17.42550 -67.32030 -15.05260 -11.70880 37.20790 16.34690 -53.67770 -0.22500 -32.72840 -0.39744 -5.65695 34.69310 7.37295 
11.89600 96.38810 16.47790 -54.26030 -48.78480 -154.72400 -12.52990 16.12940 9.89854 -25.64880 31.54990 23.58920 -29.40590 -21.16120 29.89560 -0.00000 0.00000 -0.00000 -100.05600 4.66425 -0.15623 -129.40700 -83.37270 -141.76401 -22.40140 10.01100 3.73799 -7.81763 -0.24869 13.77860 86.45890 15.35630 76.51400 3.53700 26.20710 87.55590 30.32260 12.35620 4.66795 49.78500 -58.75580 -17.56050 -31.15820 31.37380 91.40310 -29.45960 2.84404 2.72165 5.95160 25.45540 -27.47130 -63.89900 -6.82131 -22.12060 33.50220 7.58952 -38.75940 -16.53650 -24.09860 -2.76054 -4.94314 21.02100 10.91010 
14.66330 96.46880 18.64490 -59.54160 -46.53430 -156.74500 -17.45400 20.76260 8.07463 -27.25620 35.55700 24.51110 -27.58610 -22.33740 29.30400 -0.00000 0.00000 -0.00000 -101.04000 5.05634 0.70803 -93.60570 -83.80690 -110.34900 -21.15220 10.50560 1.10498 -6.36306 -0.07191 15.58070 85.25190 17.01210 74.19870 2.89669 25.94640 88.05530 28.56820 12.13470 4.36873 44.39650 -59.91170 -15.58340 -34.69890 22.23860 91.02300 -13.95150 11.90110 2.29402 8.70882 17.30870 -36.09410 -62.60250 -0.51539 -29.54330 31.06630 1.20921 -28.99780 -26.57270 -16.44100 -2.35193 -3.33747 8.04324 13.41960 
14.95930 96.78780 21.46610 -62.09990 -42.91980 -158.63400 -19.62470 22.92430 7.02638 -27.34680 37.68500 24.05000 -25.20440 -23.03310 29.01910 -0.00000 0.00000 -0.00000 -101.34300 5.64030 1.88378 -61.51880 -82.64800 -82.29720 -19.20430 10.85780 -1.25161 -4.84207 0.16187 16.67950 84.37500 19.27570 71.36470 3.13164 26.05450 88.43510 26.27690 11.92020 4.22738 36.96000 -63.30400 -11.75500 -38.00810 25.98690 87.34100 -6.25105 18.89060 1.31401 10.10390 12.52820 -42.12540 -62.30990 2.28025 -29.02650 30.26510 -2.54046 -26.42000 -31.18180 -12.71230 -1.63999 -2.23964 1.26839 14.58330 
14.40480 97.14220 23.93060 -61.59620 -38.73350 -160.14700 -21.28570 24.28960 6.36541 -26.87000 38.54620 23.91280 -22.78980 -22.97780 28.27430 -0.00000 0.00000 -0.00000 -101.00000 6.75495 3.02216 -43.22610 -80.74520 -67.58710 -16.62580 11.01510 -3.13798 -3.31410 0.41337 16.87960 83.94880 21.78540 68.19010 4.55058 26.76360 88.58830 24.24170 11.78940 4.34676 29.86030 -67.34850 -7.79282 -40.29090 35.11980 83.56030 -4.28239 24.26290 1.02848 10.86650 7.93876 -47.37140 -62.25010 1.05800 -21.00570 30.64240 -3.04440 -31.19740 -32.67330 -13.06040 -1.81947 -1.91517 -0.30991 14.53900 
13.54670 97.40990 26.00150 -58.97950 -33.99100 -162.38000 -22.23930 24.51730 6.29459 -26.10030 38.29260 24.26550 -20.74780 -22.12520 26.40930 -0.00000 0.00000 -0.00000 -99.97700 8.50547 3.93231 -33.18390 -78.93800 -60.68140 -13.67680 10.99600 -4.52580 -1.74364 0.65315 16.24010 83.68560 23.95960 64.89580 6.75436 27.95000 88.67400 23.21600 11.78170 4.69153 25.71270 -68.07640 -2.66442 -39.06910 40.92140 80.13550 -3.20284 30.45210 0.86677 10.88770 -0.16815 -54.93160 -61.04840 -2.88428 -9.01437 32.37480 -2.82301 -38.86660 -32.85050 -14.51490 -2.27946 -1.90202 0.06353 13.94640 
12.07100 97.65900 27.58950 -55.81800 -29.42500 -164.46300 -22.50940 24.20570 6.11424 -24.75580 37.76700 23.87880 -19.18900 -20.62970 23.18590 -0.00000 0.00000 -0.00000 -98.15790 10.74940 4.60192 -25.96960 -77.25330 -56.32980 -10.72210 10.86560 -5.50116 -0.11177 0.86067 15.05070 82.93850 25.45960 61.83170 8.72197 28.89240 89.13810 23.56150 11.89740 5.10551 19.04110 -67.81400 0.79864 -33.55840 45.76620 73.58740 -3.88952 35.57350 1.24438 10.07770 -7.26261 -62.06130 -59.11290 -6.32186 0.99071 34.71580 -2.61519 -44.85450 -33.15720 -15.02410 -2.45971 -1.56008 -1.44158 13.60480 
